<mxfile host="65bd71144e">
    <diagram id="FoX--cYbKHHP8zqdf9up" name="Page-1">
        <mxGraphModel dx="2454" dy="1868" grid="1" gridSize="10" guides="1" tooltips="1" connect="1" arrows="1" fold="1" page="1" pageScale="1" pageWidth="827" pageHeight="1169" math="0" shadow="0">
            <root>
                <mxCell id="0"/>
                <mxCell id="1" parent="0"/>
                <mxCell id="QuFRmykcbeeEf-0QBZY7-14" value="" style="rounded=0;whiteSpace=wrap;html=1;" parent="1" vertex="1">
                    <mxGeometry x="-10" y="160" width="730" height="1090" as="geometry"/>
                </mxCell>
                <mxCell id="1FZqoJuko9ULhmWFs1YC-31" value="volume mux menu" style="swimlane;" parent="1" vertex="1">
                    <mxGeometry x="80" y="440" width="550" height="150" as="geometry"/>
                </mxCell>
                <mxCell id="1FZqoJuko9ULhmWFs1YC-33" value="output volume" style="ellipse;whiteSpace=wrap;html=1;aspect=fixed;" parent="1FZqoJuko9ULhmWFs1YC-31" vertex="1">
                    <mxGeometry x="10" y="50" width="80" height="80" as="geometry"/>
                </mxCell>
                <mxCell id="1FZqoJuko9ULhmWFs1YC-34" value="system volume" style="ellipse;whiteSpace=wrap;html=1;aspect=fixed;" parent="1FZqoJuko9ULhmWFs1YC-31" vertex="1">
                    <mxGeometry x="110" y="50" width="80" height="80" as="geometry"/>
                </mxCell>
                <mxCell id="1FZqoJuko9ULhmWFs1YC-35" value="playback volume" style="ellipse;whiteSpace=wrap;html=1;aspect=fixed;" parent="1FZqoJuko9ULhmWFs1YC-31" vertex="1">
                    <mxGeometry x="210" y="50" width="80" height="80" as="geometry"/>
                </mxCell>
                <mxCell id="1FZqoJuko9ULhmWFs1YC-36" value="Bluetooth volume" style="ellipse;whiteSpace=wrap;html=1;aspect=fixed;" parent="1FZqoJuko9ULhmWFs1YC-31" vertex="1">
                    <mxGeometry x="310" y="50" width="80" height="80" as="geometry"/>
                </mxCell>
                <mxCell id="1FZqoJuko9ULhmWFs1YC-37" value="Home menu" style="swimlane;" parent="1" vertex="1">
                    <mxGeometry x="80" y="630" width="550" height="150" as="geometry"/>
                </mxCell>
                <mxCell id="1FZqoJuko9ULhmWFs1YC-42" value="seek slider" style="ellipse;whiteSpace=wrap;html=1;aspect=fixed;" parent="1FZqoJuko9ULhmWFs1YC-37" vertex="1">
                    <mxGeometry x="20" y="40" width="80" height="80" as="geometry"/>
                </mxCell>
                <mxCell id="1FZqoJuko9ULhmWFs1YC-43" value="pause/ play" style="ellipse;whiteSpace=wrap;html=1;aspect=fixed;" parent="1FZqoJuko9ULhmWFs1YC-37" vertex="1">
                    <mxGeometry x="130" y="40" width="80" height="80" as="geometry"/>
                </mxCell>
                <mxCell id="1FZqoJuko9ULhmWFs1YC-44" value="light" style="ellipse;whiteSpace=wrap;html=1;aspect=fixed;" parent="1FZqoJuko9ULhmWFs1YC-37" vertex="1">
                    <mxGeometry x="450" y="40" width="80" height="80" as="geometry"/>
                </mxCell>
                <mxCell id="1FZqoJuko9ULhmWFs1YC-92" value="cycle menus" style="ellipse;whiteSpace=wrap;html=1;aspect=fixed;" parent="1FZqoJuko9ULhmWFs1YC-37" vertex="1">
                    <mxGeometry x="235" y="40" width="80" height="80" as="geometry"/>
                </mxCell>
                <mxCell id="1FZqoJuko9ULhmWFs1YC-88" value="audio playback" style="swimlane;startSize=23;" parent="1" vertex="1">
                    <mxGeometry x="80" y="820" width="550" height="150" as="geometry"/>
                </mxCell>
                <mxCell id="1FZqoJuko9ULhmWFs1YC-93" value="start call" style="swimlane;startSize=23;" parent="1" vertex="1">
                    <mxGeometry x="80" y="1010" width="550" height="150" as="geometry"/>
                </mxCell>
                <mxCell id="1FZqoJuko9ULhmWFs1YC-94" value="accept call" style="swimlane;startSize=23;" parent="1" vertex="1">
                    <mxGeometry x="780" y="630" width="550" height="150" as="geometry"/>
                </mxCell>
                <mxCell id="QuFRmykcbeeEf-0QBZY7-2" value="accept" style="ellipse;whiteSpace=wrap;html=1;aspect=fixed;" parent="1FZqoJuko9ULhmWFs1YC-94" vertex="1">
                    <mxGeometry x="440" y="50" width="80" height="80" as="geometry"/>
                </mxCell>
                <mxCell id="QuFRmykcbeeEf-0QBZY7-3" value="decline" style="ellipse;whiteSpace=wrap;html=1;aspect=fixed;" parent="1FZqoJuko9ULhmWFs1YC-94" vertex="1">
                    <mxGeometry x="110" y="50" width="80" height="80" as="geometry"/>
                </mxCell>
                <mxCell id="1FZqoJuko9ULhmWFs1YC-95" value="in call" style="swimlane;startSize=23;" parent="1" vertex="1">
                    <mxGeometry x="1360" y="630" width="550" height="150" as="geometry"/>
                </mxCell>
                <mxCell id="QuFRmykcbeeEf-0QBZY7-4" value="hangup" style="ellipse;whiteSpace=wrap;html=1;aspect=fixed;" parent="1FZqoJuko9ULhmWFs1YC-95" vertex="1">
                    <mxGeometry x="210" y="50" width="80" height="80" as="geometry"/>
                </mxCell>
                <mxCell id="QuFRmykcbeeEf-0QBZY7-5" value="volume" style="ellipse;whiteSpace=wrap;html=1;aspect=fixed;" parent="1FZqoJuko9ULhmWFs1YC-95" vertex="1">
                    <mxGeometry x="410" y="50" width="80" height="80" as="geometry"/>
                </mxCell>
                <mxCell id="QuFRmykcbeeEf-0QBZY7-7" value="mic mute" style="ellipse;whiteSpace=wrap;html=1;aspect=fixed;" parent="1FZqoJuko9ULhmWFs1YC-95" vertex="1">
                    <mxGeometry x="50" y="50" width="80" height="80" as="geometry"/>
                </mxCell>
                <mxCell id="1FZqoJuko9ULhmWFs1YC-96" value="System menu" style="swimlane;startSize=23;" parent="1" vertex="1">
                    <mxGeometry x="80" y="250" width="550" height="150" as="geometry">
                        <mxRectangle x="80" y="250" width="110" height="23" as="alternateBounds"/>
                    </mxGeometry>
                </mxCell>
                <mxCell id="QuFRmykcbeeEf-0QBZY7-20" value="bluetooth pairng" style="ellipse;whiteSpace=wrap;html=1;aspect=fixed;" parent="1FZqoJuko9ULhmWFs1YC-96" vertex="1">
                    <mxGeometry x="20" y="40" width="80" height="80" as="geometry"/>
                </mxCell>
                <mxCell id="QuFRmykcbeeEf-0QBZY7-9" value="button" style="ellipse;whiteSpace=wrap;html=1;aspect=fixed;" parent="1" vertex="1">
                    <mxGeometry x="180" y="-270" width="80" height="80" as="geometry"/>
                </mxCell>
                <mxCell id="QuFRmykcbeeEf-0QBZY7-11" value="screens, which can be swiped through" style="whiteSpace=wrap;html=1;aspect=fixed;" parent="1" vertex="1">
                    <mxGeometry x="290" y="-270" width="80" height="80" as="geometry"/>
                </mxCell>
                <mxCell id="QuFRmykcbeeEf-0QBZY7-19" value="swipe gestures" style="shape=flexArrow;endArrow=classic;html=1;rounded=0;endWidth=50.37037037037037;endSize=10;width=13.333333333333332;" parent="1" edge="1">
                    <mxGeometry x="-0.0526" width="50" height="50" relative="1" as="geometry">
                        <mxPoint x="180" y="-140" as="sourcePoint"/>
                        <mxPoint x="370" y="-140" as="targetPoint"/>
                        <mxPoint as="offset"/>
                    </mxGeometry>
                </mxCell>
                <mxCell id="QuFRmykcbeeEf-0QBZY7-21" value="lights brightness" style="ellipse;whiteSpace=wrap;html=1;aspect=fixed;" parent="1" vertex="1">
                    <mxGeometry x="200" y="290" width="80" height="80" as="geometry"/>
                </mxCell>
                <mxCell id="QuFRmykcbeeEf-0QBZY7-22" value="battery status" style="ellipse;whiteSpace=wrap;html=1;aspect=fixed;" parent="1" vertex="1">
                    <mxGeometry x="310" y="290" width="80" height="80" as="geometry"/>
                </mxCell>
                <mxCell id="2" value="Hold rearmost button for back" style="text;html=1;align=center;verticalAlign=middle;resizable=0;points=[];autosize=1;strokeColor=none;fillColor=none;" vertex="1" parent="1">
                    <mxGeometry x="-10" y="100" width="180" height="30" as="geometry"/>
                </mxCell>
                <mxCell id="3" value="output volume" style="ellipse;whiteSpace=wrap;html=1;aspect=fixed;" vertex="1" parent="1">
                    <mxGeometry x="420" y="670" width="80" height="80" as="geometry"/>
                </mxCell>
            </root>
        </mxGraphModel>
    </diagram>
</mxfile>